<mxfile host="app.diagrams.net" agent="Mozilla/5.0 (Macintosh; Intel Mac OS X 10_15_7) AppleWebKit/537.36 (KHTML, like Gecko) Chrome/130.0.0.0 Safari/537.36 Edg/130.0.0.0" modified="2024-11-19T15:27:54.293Z" version="24.6.5" etag="Hg5DDdlRMaA0iHTo7ko2" type="github" pages="3">
  <diagram name="第 1 页" id="bHe5YImh7ez7wOxQgxW9">
    <mxGraphModel dx="1038" dy="928" grid="0" gridSize="10" guides="1" tooltips="1" connect="1" arrows="1" fold="1" page="1" pageScale="1" pageWidth="1169" pageHeight="827" math="0" shadow="0">
      <root>
        <mxCell id="0" />
        <mxCell id="1" parent="0" />
        <mxCell id="HK45Kl5_RAtIdjN0a8UV-14" value="" style="rounded=0;whiteSpace=wrap;html=1;fillColor=none;dashed=1;strokeWidth=2;" vertex="1" parent="1">
          <mxGeometry x="42" y="117" width="120" height="160" as="geometry" />
        </mxCell>
        <mxCell id="HK45Kl5_RAtIdjN0a8UV-4" value="" style="rounded=0;whiteSpace=wrap;html=1;fillColor=none;" vertex="1" parent="1">
          <mxGeometry x="32" y="57" width="360" height="280" as="geometry" />
        </mxCell>
        <mxCell id="HK45Kl5_RAtIdjN0a8UV-3" value="" style="image;aspect=fixed;html=1;points=[];align=center;fontSize=12;image=img/lib/azure2/other/Grafana.svg;" vertex="1" parent="1">
          <mxGeometry x="32" y="57" width="51.52" height="40" as="geometry" />
        </mxCell>
        <mxCell id="HK45Kl5_RAtIdjN0a8UV-10" value="" style="shape=flexArrow;endArrow=classic;html=1;rounded=0;" edge="1" parent="1">
          <mxGeometry width="50" height="50" relative="1" as="geometry">
            <mxPoint x="602" y="206.60000000000002" as="sourcePoint" />
            <mxPoint x="642" y="206.60000000000002" as="targetPoint" />
          </mxGeometry>
        </mxCell>
        <mxCell id="HK45Kl5_RAtIdjN0a8UV-12" value="abnormal-alert" style="rounded=0;whiteSpace=wrap;html=1;fillColor=#dae8fc;strokeColor=#6c8ebf;" vertex="1" parent="1">
          <mxGeometry x="52" y="197" width="100" height="20" as="geometry" />
        </mxCell>
        <mxCell id="HK45Kl5_RAtIdjN0a8UV-15" value="Contact point" style="text;html=1;align=center;verticalAlign=middle;resizable=0;points=[];autosize=1;strokeColor=none;fillColor=none;" vertex="1" parent="1">
          <mxGeometry x="52" y="277" width="90" height="30" as="geometry" />
        </mxCell>
        <mxCell id="HK45Kl5_RAtIdjN0a8UV-16" value="" style="rounded=0;whiteSpace=wrap;html=1;fillColor=none;dashed=1;strokeWidth=2;" vertex="1" parent="1">
          <mxGeometry x="232" y="117" width="120" height="160" as="geometry" />
        </mxCell>
        <mxCell id="HK45Kl5_RAtIdjN0a8UV-17" value="Notification policies" style="text;html=1;align=center;verticalAlign=middle;resizable=0;points=[];autosize=1;strokeColor=none;fillColor=none;" vertex="1" parent="1">
          <mxGeometry x="227" y="277" width="130" height="30" as="geometry" />
        </mxCell>
        <mxCell id="HK45Kl5_RAtIdjN0a8UV-18" value="" style="shape=flexArrow;endArrow=classic;html=1;rounded=0;" edge="1" parent="1">
          <mxGeometry width="50" height="50" relative="1" as="geometry">
            <mxPoint x="178" y="206.60000000000002" as="sourcePoint" />
            <mxPoint x="218" y="206.60000000000002" as="targetPoint" />
          </mxGeometry>
        </mxCell>
        <mxCell id="HK45Kl5_RAtIdjN0a8UV-19" value="SNS" style="sketch=0;points=[[0,0,0],[0.25,0,0],[0.5,0,0],[0.75,0,0],[1,0,0],[0,1,0],[0.25,1,0],[0.5,1,0],[0.75,1,0],[1,1,0],[0,0.25,0],[0,0.5,0],[0,0.75,0],[1,0.25,0],[1,0.5,0],[1,0.75,0]];outlineConnect=0;fontColor=#232F3E;fillColor=#E7157B;strokeColor=#ffffff;dashed=0;verticalLabelPosition=bottom;verticalAlign=top;align=center;html=1;fontSize=12;fontStyle=0;aspect=fixed;shape=mxgraph.aws4.resourceIcon;resIcon=mxgraph.aws4.sns;" vertex="1" parent="1">
          <mxGeometry x="672" y="168" width="78" height="78" as="geometry" />
        </mxCell>
        <mxCell id="HK45Kl5_RAtIdjN0a8UV-20" value="&amp;nbsp;Network account" style="points=[[0,0],[0.25,0],[0.5,0],[0.75,0],[1,0],[1,0.25],[1,0.5],[1,0.75],[1,1],[0.75,1],[0.5,1],[0.25,1],[0,1],[0,0.75],[0,0.5],[0,0.25]];outlineConnect=0;gradientColor=none;html=1;whiteSpace=wrap;fontSize=12;fontStyle=0;container=1;pointerEvents=0;collapsible=0;recursiveResize=0;shape=mxgraph.aws4.group;grIcon=mxgraph.aws4.group_aws_cloud_alt;strokeColor=#232F3E;fillColor=none;verticalAlign=top;align=left;spacingLeft=30;fontColor=#232F3E;dashed=0;" vertex="1" parent="1">
          <mxGeometry x="650" y="132" width="200" height="144" as="geometry" />
        </mxCell>
        <mxCell id="HK45Kl5_RAtIdjN0a8UV-21" value="Orion logging account" style="points=[[0,0],[0.25,0],[0.5,0],[0.75,0],[1,0],[1,0.25],[1,0.5],[1,0.75],[1,1],[0.75,1],[0.5,1],[0.25,1],[0,1],[0,0.75],[0,0.5],[0,0.25]];outlineConnect=0;gradientColor=none;html=1;whiteSpace=wrap;fontSize=12;fontStyle=0;container=1;pointerEvents=0;collapsible=0;recursiveResize=0;shape=mxgraph.aws4.group;grIcon=mxgraph.aws4.group_aws_cloud_alt;strokeColor=#232F3E;fillColor=none;verticalAlign=top;align=left;spacingLeft=30;fontColor=#232F3E;dashed=0;" vertex="1" parent="1">
          <mxGeometry x="14" y="17" width="570" height="360" as="geometry" />
        </mxCell>
        <mxCell id="HK45Kl5_RAtIdjN0a8UV-8" value="" style="rounded=0;whiteSpace=wrap;html=1;fillColor=none;dashed=1;dashPattern=12 12;" vertex="1" parent="HK45Kl5_RAtIdjN0a8UV-21">
          <mxGeometry x="463" y="110" width="80" height="160" as="geometry" />
        </mxCell>
        <mxCell id="HK45Kl5_RAtIdjN0a8UV-6" value="Alertmanager" style="aspect=fixed;sketch=0;html=1;dashed=0;whitespace=wrap;verticalLabelPosition=bottom;verticalAlign=top;fillColor=#2875E2;strokeColor=#ffffff;points=[[0.005,0.63,0],[0.1,0.2,0],[0.9,0.2,0],[0.5,0,0],[0.995,0.63,0],[0.72,0.99,0],[0.5,1,0],[0.28,0.99,0]];shape=mxgraph.kubernetes.icon2;prIcon=sts" vertex="1" parent="HK45Kl5_RAtIdjN0a8UV-21">
          <mxGeometry x="483" y="210" width="41.67" height="40" as="geometry" />
        </mxCell>
        <mxCell id="HK45Kl5_RAtIdjN0a8UV-7" value="Alert template" style="image;html=1;image=img/lib/clip_art/general/Full_Folder_128x128.png" vertex="1" parent="HK45Kl5_RAtIdjN0a8UV-21">
          <mxGeometry x="483" y="130" width="38.33" height="40" as="geometry" />
        </mxCell>
        <mxCell id="HK45Kl5_RAtIdjN0a8UV-9" value="" style="shape=flexArrow;endArrow=classic;html=1;rounded=0;" edge="1" parent="HK45Kl5_RAtIdjN0a8UV-21">
          <mxGeometry width="50" height="50" relative="1" as="geometry">
            <mxPoint x="398" y="190" as="sourcePoint" />
            <mxPoint x="438" y="190" as="targetPoint" />
          </mxGeometry>
        </mxCell>
        <mxCell id="HK45Kl5_RAtIdjN0a8UV-23" value="abnormal-vpc" style="rounded=0;whiteSpace=wrap;html=1;fillColor=#d5e8d4;strokeColor=#82b366;" vertex="1" parent="HK45Kl5_RAtIdjN0a8UV-21">
          <mxGeometry x="228" y="200" width="100" height="20" as="geometry" />
        </mxCell>
        <mxCell id="HK45Kl5_RAtIdjN0a8UV-11" value="Grafana" style="text;html=1;align=center;verticalAlign=middle;resizable=0;points=[];autosize=1;strokeColor=none;fillColor=none;" vertex="1" parent="HK45Kl5_RAtIdjN0a8UV-21">
          <mxGeometry x="60" y="41" width="70" height="30" as="geometry" />
        </mxCell>
        <mxCell id="HK45Kl5_RAtIdjN0a8UV-22" value="abnormal-apigw" style="rounded=0;whiteSpace=wrap;html=1;fillColor=#d5e8d4;strokeColor=#82b366;" vertex="1" parent="1">
          <mxGeometry x="242" y="168" width="100" height="20" as="geometry" />
        </mxCell>
      </root>
    </mxGraphModel>
  </diagram>
  <diagram id="vI1YSkzat5P6jRGyHJiB" name="cll_tgw">
    <mxGraphModel dx="931" dy="1210" grid="1" gridSize="10" guides="1" tooltips="1" connect="1" arrows="1" fold="1" page="1" pageScale="1" pageWidth="1169" pageHeight="827" math="0" shadow="0">
      <root>
        <mxCell id="0" />
        <mxCell id="1" parent="0" />
        <mxCell id="sHTxUgN6t5W63TK-1FjR-29" style="edgeStyle=none;curved=0;rounded=1;orthogonalLoop=1;jettySize=auto;html=1;exitX=1;exitY=0.5;exitDx=0;exitDy=0;entryX=0.5;entryY=0;entryDx=0;entryDy=0;fontSize=12;startSize=8;endSize=8;startArrow=classic;startFill=1;fillColor=#ffe6cc;strokeColor=#000000;strokeWidth=2;" edge="1" parent="1" source="sHTxUgN6t5W63TK-1FjR-24" target="sHTxUgN6t5W63TK-1FjR-10">
          <mxGeometry relative="1" as="geometry">
            <Array as="points">
              <mxPoint x="465" y="405" />
            </Array>
          </mxGeometry>
        </mxCell>
        <mxCell id="sHTxUgN6t5W63TK-1FjR-24" value="" style="rounded=0;whiteSpace=wrap;html=1;" vertex="1" parent="1">
          <mxGeometry x="300" y="370" width="140" height="70" as="geometry" />
        </mxCell>
        <mxCell id="sHTxUgN6t5W63TK-1FjR-1" value="AWS Cloud cn-north-1" style="points=[[0,0],[0.25,0],[0.5,0],[0.75,0],[1,0],[1,0.25],[1,0.5],[1,0.75],[1,1],[0.75,1],[0.5,1],[0.25,1],[0,1],[0,0.75],[0,0.5],[0,0.25]];outlineConnect=0;gradientColor=none;html=1;whiteSpace=wrap;fontSize=12;fontStyle=0;container=1;pointerEvents=0;collapsible=0;recursiveResize=0;shape=mxgraph.aws4.group;grIcon=mxgraph.aws4.group_aws_cloud_alt;strokeColor=#232F3E;fillColor=none;verticalAlign=top;align=left;spacingLeft=30;fontColor=#232F3E;dashed=0;" vertex="1" parent="1">
          <mxGeometry x="40" y="160" width="200" height="480" as="geometry" />
        </mxCell>
        <mxCell id="sHTxUgN6t5W63TK-1FjR-14" value="VPC" style="points=[[0,0],[0.25,0],[0.5,0],[0.75,0],[1,0],[1,0.25],[1,0.5],[1,0.75],[1,1],[0.75,1],[0.5,1],[0.25,1],[0,1],[0,0.75],[0,0.5],[0,0.25]];outlineConnect=0;gradientColor=none;html=1;whiteSpace=wrap;fontSize=12;fontStyle=0;container=1;pointerEvents=0;collapsible=0;recursiveResize=0;shape=mxgraph.aws4.group;grIcon=mxgraph.aws4.group_vpc2;strokeColor=#8C4FFF;fillColor=none;verticalAlign=top;align=left;spacingLeft=30;fontColor=#AAB7B8;dashed=0;" vertex="1" parent="sHTxUgN6t5W63TK-1FjR-1">
          <mxGeometry x="35" y="330" width="130" height="130" as="geometry" />
        </mxCell>
        <mxCell id="sHTxUgN6t5W63TK-1FjR-62" value="EKS" style="sketch=0;points=[[0,0,0],[0.25,0,0],[0.5,0,0],[0.75,0,0],[1,0,0],[0,1,0],[0.25,1,0],[0.5,1,0],[0.75,1,0],[1,1,0],[0,0.25,0],[0,0.5,0],[0,0.75,0],[1,0.25,0],[1,0.5,0],[1,0.75,0]];outlineConnect=0;fontColor=#232F3E;fillColor=#ED7100;strokeColor=#ffffff;dashed=0;verticalLabelPosition=bottom;verticalAlign=top;align=center;html=1;fontSize=12;fontStyle=0;aspect=fixed;shape=mxgraph.aws4.resourceIcon;resIcon=mxgraph.aws4.eks;" vertex="1" parent="sHTxUgN6t5W63TK-1FjR-14">
          <mxGeometry x="45.5" y="50" width="39" height="39" as="geometry" />
        </mxCell>
        <mxCell id="sHTxUgN6t5W63TK-1FjR-15" value="VPC" style="points=[[0,0],[0.25,0],[0.5,0],[0.75,0],[1,0],[1,0.25],[1,0.5],[1,0.75],[1,1],[0.75,1],[0.5,1],[0.25,1],[0,1],[0,0.75],[0,0.5],[0,0.25]];outlineConnect=0;gradientColor=none;html=1;whiteSpace=wrap;fontSize=12;fontStyle=0;container=1;pointerEvents=0;collapsible=0;recursiveResize=0;shape=mxgraph.aws4.group;grIcon=mxgraph.aws4.group_vpc2;strokeColor=#8C4FFF;fillColor=none;verticalAlign=top;align=left;spacingLeft=30;fontColor=#AAB7B8;dashed=0;" vertex="1" parent="sHTxUgN6t5W63TK-1FjR-1">
          <mxGeometry x="35" y="180" width="130" height="130" as="geometry" />
        </mxCell>
        <mxCell id="sHTxUgN6t5W63TK-1FjR-61" value="EKS" style="sketch=0;points=[[0,0,0],[0.25,0,0],[0.5,0,0],[0.75,0,0],[1,0,0],[0,1,0],[0.25,1,0],[0.5,1,0],[0.75,1,0],[1,1,0],[0,0.25,0],[0,0.5,0],[0,0.75,0],[1,0.25,0],[1,0.5,0],[1,0.75,0]];outlineConnect=0;fontColor=#232F3E;fillColor=#ED7100;strokeColor=#ffffff;dashed=0;verticalLabelPosition=bottom;verticalAlign=top;align=center;html=1;fontSize=12;fontStyle=0;aspect=fixed;shape=mxgraph.aws4.resourceIcon;resIcon=mxgraph.aws4.eks;" vertex="1" parent="sHTxUgN6t5W63TK-1FjR-15">
          <mxGeometry x="45.5" y="45.5" width="39" height="39" as="geometry" />
        </mxCell>
        <mxCell id="sHTxUgN6t5W63TK-1FjR-16" value="VPC" style="points=[[0,0],[0.25,0],[0.5,0],[0.75,0],[1,0],[1,0.25],[1,0.5],[1,0.75],[1,1],[0.75,1],[0.5,1],[0.25,1],[0,1],[0,0.75],[0,0.5],[0,0.25]];outlineConnect=0;gradientColor=none;html=1;whiteSpace=wrap;fontSize=12;fontStyle=0;container=1;pointerEvents=0;collapsible=0;recursiveResize=0;shape=mxgraph.aws4.group;grIcon=mxgraph.aws4.group_vpc2;strokeColor=#8C4FFF;fillColor=none;verticalAlign=top;align=left;spacingLeft=30;fontColor=#AAB7B8;dashed=0;" vertex="1" parent="sHTxUgN6t5W63TK-1FjR-1">
          <mxGeometry x="35" y="30" width="130" height="130" as="geometry" />
        </mxCell>
        <mxCell id="sHTxUgN6t5W63TK-1FjR-59" value="EKS" style="sketch=0;points=[[0,0,0],[0.25,0,0],[0.5,0,0],[0.75,0,0],[1,0,0],[0,1,0],[0.25,1,0],[0.5,1,0],[0.75,1,0],[1,1,0],[0,0.25,0],[0,0.5,0],[0,0.75,0],[1,0.25,0],[1,0.5,0],[1,0.75,0]];outlineConnect=0;fontColor=#232F3E;fillColor=#ED7100;strokeColor=#ffffff;dashed=0;verticalLabelPosition=bottom;verticalAlign=top;align=center;html=1;fontSize=12;fontStyle=0;aspect=fixed;shape=mxgraph.aws4.resourceIcon;resIcon=mxgraph.aws4.eks;" vertex="1" parent="sHTxUgN6t5W63TK-1FjR-16">
          <mxGeometry x="15" y="45.5" width="39" height="39" as="geometry" />
        </mxCell>
        <mxCell id="sHTxUgN6t5W63TK-1FjR-60" value="&lt;font style=&quot;font-size: 9px;&quot;&gt;EKS Connector&lt;/font&gt;" style="sketch=0;points=[[0,0,0],[0.25,0,0],[0.5,0,0],[0.75,0,0],[1,0,0],[0,1,0],[0.25,1,0],[0.5,1,0],[0.75,1,0],[1,1,0],[0,0.25,0],[0,0.5,0],[0,0.75,0],[1,0.25,0],[1,0.5,0],[1,0.75,0]];outlineConnect=0;fontColor=#232F3E;fillColor=#ED7100;strokeColor=#ffffff;dashed=0;verticalLabelPosition=bottom;verticalAlign=top;align=center;html=1;fontSize=12;fontStyle=0;aspect=fixed;shape=mxgraph.aws4.resourceIcon;resIcon=mxgraph.aws4.eks_cloud;" vertex="1" parent="sHTxUgN6t5W63TK-1FjR-16">
          <mxGeometry x="75" y="45.5" width="39" height="39" as="geometry" />
        </mxCell>
        <mxCell id="sHTxUgN6t5W63TK-1FjR-35" style="edgeStyle=none;curved=0;rounded=1;orthogonalLoop=1;jettySize=auto;html=1;exitX=0;exitY=0.5;exitDx=0;exitDy=0;entryX=0.5;entryY=1;entryDx=0;entryDy=0;fontSize=12;startSize=8;endSize=8;fillColor=#ffe6cc;strokeColor=#000000;strokeWidth=2;" edge="1" parent="1" source="sHTxUgN6t5W63TK-1FjR-2" target="sHTxUgN6t5W63TK-1FjR-10">
          <mxGeometry relative="1" as="geometry">
            <Array as="points">
              <mxPoint x="465" y="813" />
            </Array>
          </mxGeometry>
        </mxCell>
        <mxCell id="sHTxUgN6t5W63TK-1FjR-2" value="企业IDC" style="points=[[0,0],[0.25,0],[0.5,0],[0.75,0],[1,0],[1,0.25],[1,0.5],[1,0.75],[1,1],[0.75,1],[0.5,1],[0.25,1],[0,1],[0,0.75],[0,0.5],[0,0.25]];outlineConnect=0;gradientColor=none;html=1;whiteSpace=wrap;fontSize=12;fontStyle=0;container=1;pointerEvents=0;collapsible=0;recursiveResize=0;shape=mxgraph.aws4.group;grIcon=mxgraph.aws4.group_on_premise;strokeColor=#7D8998;fillColor=none;verticalAlign=top;align=left;spacingLeft=30;fontColor=#5A6C86;dashed=0;" vertex="1" parent="1">
          <mxGeometry x="680" y="750" width="130" height="125" as="geometry" />
        </mxCell>
        <mxCell id="sHTxUgN6t5W63TK-1FjR-4" style="edgeStyle=none;curved=1;rounded=0;orthogonalLoop=1;jettySize=auto;html=1;exitX=0.5;exitY=1;exitDx=0;exitDy=0;fontSize=12;startSize=8;endSize=8;" edge="1" parent="1" source="sHTxUgN6t5W63TK-1FjR-2" target="sHTxUgN6t5W63TK-1FjR-2">
          <mxGeometry relative="1" as="geometry" />
        </mxCell>
        <mxCell id="sHTxUgN6t5W63TK-1FjR-39" style="edgeStyle=none;curved=1;rounded=0;orthogonalLoop=1;jettySize=auto;html=1;fontSize=12;startSize=8;endSize=8;fillColor=#d5e8d4;strokeColor=#82b366;strokeWidth=2;" edge="1" parent="1" source="sHTxUgN6t5W63TK-1FjR-5">
          <mxGeometry relative="1" as="geometry">
            <mxPoint x="520" y="179.9183673469388" as="targetPoint" />
          </mxGeometry>
        </mxCell>
        <mxCell id="sHTxUgN6t5W63TK-1FjR-5" value="边端汇聚" style="points=[[0,0],[0.25,0],[0.5,0],[0.75,0],[1,0],[1,0.25],[1,0.5],[1,0.75],[1,1],[0.75,1],[0.5,1],[0.25,1],[0,1],[0,0.75],[0,0.5],[0,0.25]];outlineConnect=0;gradientColor=none;html=1;whiteSpace=wrap;fontSize=12;fontStyle=0;container=1;pointerEvents=0;collapsible=0;recursiveResize=0;shape=mxgraph.aws4.group;grIcon=mxgraph.aws4.group_on_premise;strokeColor=#7D8998;fillColor=none;verticalAlign=top;align=left;spacingLeft=30;fontColor=#5A6C86;dashed=0;" vertex="1" parent="1">
          <mxGeometry x="680" y="119" width="130" height="120" as="geometry" />
        </mxCell>
        <mxCell id="sHTxUgN6t5W63TK-1FjR-6" value="Office branch 1&amp;nbsp;" style="points=[[0,0],[0.25,0],[0.5,0],[0.75,0],[1,0],[1,0.25],[1,0.5],[1,0.75],[1,1],[0.75,1],[0.5,1],[0.25,1],[0,1],[0,0.75],[0,0.5],[0,0.25]];outlineConnect=0;gradientColor=none;html=1;whiteSpace=wrap;fontSize=12;fontStyle=0;container=1;pointerEvents=0;collapsible=0;recursiveResize=0;shape=mxgraph.aws4.group;grIcon=mxgraph.aws4.group_on_premise;strokeColor=#7D8998;fillColor=none;verticalAlign=top;align=left;spacingLeft=30;fontColor=#5A6C86;dashed=0;" vertex="1" parent="1">
          <mxGeometry x="680" y="271" width="130" height="120" as="geometry" />
        </mxCell>
        <mxCell id="sHTxUgN6t5W63TK-1FjR-33" value="小" style="text;html=1;align=center;verticalAlign=middle;resizable=0;points=[];autosize=1;strokeColor=none;fillColor=none;fontSize=16;" vertex="1" parent="sHTxUgN6t5W63TK-1FjR-6">
          <mxGeometry x="45" y="90" width="40" height="30" as="geometry" />
        </mxCell>
        <mxCell id="sHTxUgN6t5W63TK-1FjR-11" style="edgeStyle=none;curved=0;rounded=1;orthogonalLoop=1;jettySize=auto;html=1;entryX=1;entryY=0.5;entryDx=0;entryDy=0;fontSize=12;startSize=8;endSize=8;fillColor=#ffe6cc;strokeColor=#000000;strokeWidth=2;" edge="1" parent="1" source="sHTxUgN6t5W63TK-1FjR-7" target="sHTxUgN6t5W63TK-1FjR-10">
          <mxGeometry relative="1" as="geometry">
            <Array as="points">
              <mxPoint x="630" y="600" />
              <mxPoint x="580" y="655" />
            </Array>
          </mxGeometry>
        </mxCell>
        <mxCell id="sHTxUgN6t5W63TK-1FjR-7" value="Office branch 2" style="points=[[0,0],[0.25,0],[0.5,0],[0.75,0],[1,0],[1,0.25],[1,0.5],[1,0.75],[1,1],[0.75,1],[0.5,1],[0.25,1],[0,1],[0,0.75],[0,0.5],[0,0.25]];outlineConnect=0;gradientColor=none;html=1;whiteSpace=wrap;fontSize=12;fontStyle=0;container=1;pointerEvents=0;collapsible=0;recursiveResize=0;shape=mxgraph.aws4.group;grIcon=mxgraph.aws4.group_on_premise;strokeColor=#7D8998;fillColor=none;verticalAlign=top;align=left;spacingLeft=30;fontColor=#5A6C86;dashed=0;" vertex="1" parent="1">
          <mxGeometry x="680" y="434" width="130" height="120" as="geometry" />
        </mxCell>
        <mxCell id="sHTxUgN6t5W63TK-1FjR-31" value="大区" style="text;html=1;align=center;verticalAlign=middle;resizable=0;points=[];autosize=1;strokeColor=none;fillColor=none;fontSize=16;" vertex="1" parent="sHTxUgN6t5W63TK-1FjR-7">
          <mxGeometry x="35" y="90" width="60" height="30" as="geometry" />
        </mxCell>
        <mxCell id="sHTxUgN6t5W63TK-1FjR-12" style="edgeStyle=none;curved=1;rounded=0;orthogonalLoop=1;jettySize=auto;html=1;fontSize=12;startSize=8;endSize=8;entryX=1;entryY=0.5;entryDx=0;entryDy=0;fillColor=#ffe6cc;strokeColor=#000000;strokeWidth=2;" edge="1" parent="1" source="sHTxUgN6t5W63TK-1FjR-8" target="sHTxUgN6t5W63TK-1FjR-10">
          <mxGeometry relative="1" as="geometry">
            <mxPoint x="530" y="650" as="targetPoint" />
          </mxGeometry>
        </mxCell>
        <mxCell id="sHTxUgN6t5W63TK-1FjR-8" value="Office branch 3" style="points=[[0,0],[0.25,0],[0.5,0],[0.75,0],[1,0],[1,0.25],[1,0.5],[1,0.75],[1,1],[0.75,1],[0.5,1],[0.25,1],[0,1],[0,0.75],[0,0.5],[0,0.25]];outlineConnect=0;gradientColor=none;html=1;whiteSpace=wrap;fontSize=12;fontStyle=0;container=1;pointerEvents=0;collapsible=0;recursiveResize=0;shape=mxgraph.aws4.group;grIcon=mxgraph.aws4.group_on_premise;strokeColor=#7D8998;fillColor=none;verticalAlign=top;align=left;spacingLeft=30;fontColor=#5A6C86;dashed=0;" vertex="1" parent="1">
          <mxGeometry x="680" y="594" width="130" height="120" as="geometry" />
        </mxCell>
        <mxCell id="sHTxUgN6t5W63TK-1FjR-32" value="区域" style="text;html=1;align=center;verticalAlign=middle;resizable=0;points=[];autosize=1;strokeColor=none;fillColor=none;fontSize=16;" vertex="1" parent="sHTxUgN6t5W63TK-1FjR-8">
          <mxGeometry x="35" y="90" width="60" height="30" as="geometry" />
        </mxCell>
        <mxCell id="sHTxUgN6t5W63TK-1FjR-10" value="运营商机房" style="points=[[0,0],[0.25,0],[0.5,0],[0.75,0],[1,0],[1,0.25],[1,0.5],[1,0.75],[1,1],[0.75,1],[0.5,1],[0.25,1],[0,1],[0,0.75],[0,0.5],[0,0.25]];outlineConnect=0;gradientColor=none;html=1;whiteSpace=wrap;fontSize=12;fontStyle=0;container=1;pointerEvents=0;collapsible=0;recursiveResize=0;shape=mxgraph.aws4.group;grIcon=mxgraph.aws4.group_aws_cloud;strokeColor=#232F3E;fillColor=none;verticalAlign=top;align=left;spacingLeft=30;fontColor=#232F3E;dashed=0;" vertex="1" parent="1">
          <mxGeometry x="400" y="590" width="130" height="130" as="geometry" />
        </mxCell>
        <mxCell id="sHTxUgN6t5W63TK-1FjR-58" value="专线" style="text;html=1;align=center;verticalAlign=middle;resizable=0;points=[];autosize=1;strokeColor=none;fillColor=none;fontSize=16;" vertex="1" parent="sHTxUgN6t5W63TK-1FjR-10">
          <mxGeometry x="35" y="51" width="60" height="30" as="geometry" />
        </mxCell>
        <mxCell id="sHTxUgN6t5W63TK-1FjR-17" value="" style="sketch=0;points=[[0,0,0],[0.25,0,0],[0.5,0,0],[0.75,0,0],[1,0,0],[0,1,0],[0.25,1,0],[0.5,1,0],[0.75,1,0],[1,1,0],[0,0.25,0],[0,0.5,0],[0,0.75,0],[1,0.25,0],[1,0.5,0],[1,0.75,0]];outlineConnect=0;fontColor=#232F3E;fillColor=#8C4FFF;strokeColor=#ffffff;dashed=0;verticalLabelPosition=bottom;verticalAlign=top;align=center;html=1;fontSize=12;fontStyle=0;aspect=fixed;shape=mxgraph.aws4.resourceIcon;resIcon=mxgraph.aws4.transit_gateway;" vertex="1" parent="1">
          <mxGeometry x="320" y="385" width="40" height="40" as="geometry" />
        </mxCell>
        <mxCell id="sHTxUgN6t5W63TK-1FjR-22" value="" style="outlineConnect=0;dashed=0;verticalLabelPosition=bottom;verticalAlign=top;align=center;html=1;shape=mxgraph.aws3.vpc_peering;fillColor=#F58536;gradientColor=none;" vertex="1" parent="1">
          <mxGeometry x="380" y="385" width="40" height="40" as="geometry" />
        </mxCell>
        <mxCell id="sHTxUgN6t5W63TK-1FjR-23" value="/" style="text;html=1;align=center;verticalAlign=middle;resizable=0;points=[];autosize=1;strokeColor=none;fillColor=none;fontSize=16;" vertex="1" parent="1">
          <mxGeometry x="354" y="390" width="30" height="30" as="geometry" />
        </mxCell>
        <mxCell id="sHTxUgN6t5W63TK-1FjR-25" value="TGW/VGW" style="text;html=1;align=center;verticalAlign=middle;resizable=0;points=[];autosize=1;strokeColor=none;fillColor=none;fontSize=16;" vertex="1" parent="1">
          <mxGeometry x="319" y="440" width="100" height="30" as="geometry" />
        </mxCell>
        <mxCell id="sHTxUgN6t5W63TK-1FjR-26" style="edgeStyle=none;curved=0;rounded=1;orthogonalLoop=1;jettySize=auto;html=1;exitX=1;exitY=0.5;exitDx=0;exitDy=0;entryX=0.5;entryY=0;entryDx=0;entryDy=0;fontSize=12;startSize=8;endSize=8;fillColor=#ffe6cc;strokeColor=#000000;strokeWidth=2;" edge="1" parent="1" source="sHTxUgN6t5W63TK-1FjR-16" target="sHTxUgN6t5W63TK-1FjR-24">
          <mxGeometry relative="1" as="geometry">
            <Array as="points" />
          </mxGeometry>
        </mxCell>
        <mxCell id="sHTxUgN6t5W63TK-1FjR-27" style="edgeStyle=none;curved=1;rounded=0;orthogonalLoop=1;jettySize=auto;html=1;exitX=1;exitY=0.5;exitDx=0;exitDy=0;entryX=0;entryY=0.5;entryDx=0;entryDy=0;fontSize=12;startSize=8;endSize=8;fillColor=#ffe6cc;strokeColor=#000000;strokeWidth=2;" edge="1" parent="1" source="sHTxUgN6t5W63TK-1FjR-15" target="sHTxUgN6t5W63TK-1FjR-24">
          <mxGeometry relative="1" as="geometry" />
        </mxCell>
        <mxCell id="sHTxUgN6t5W63TK-1FjR-28" style="edgeStyle=none;curved=0;rounded=1;orthogonalLoop=1;jettySize=auto;html=1;exitX=1;exitY=0.5;exitDx=0;exitDy=0;entryX=0.5;entryY=1.067;entryDx=0;entryDy=0;entryPerimeter=0;fontSize=12;startSize=8;endSize=8;fillColor=#ffe6cc;strokeColor=#000000;strokeWidth=2;" edge="1" parent="1" source="sHTxUgN6t5W63TK-1FjR-14" target="sHTxUgN6t5W63TK-1FjR-25">
          <mxGeometry relative="1" as="geometry">
            <Array as="points">
              <mxPoint x="370" y="555" />
            </Array>
          </mxGeometry>
        </mxCell>
        <mxCell id="sHTxUgN6t5W63TK-1FjR-36" value="ALB" style="text;html=1;align=center;verticalAlign=middle;resizable=0;points=[];autosize=1;strokeColor=none;fillColor=none;fontSize=16;" vertex="1" parent="1">
          <mxGeometry x="475" y="209" width="50" height="30" as="geometry" />
        </mxCell>
        <mxCell id="sHTxUgN6t5W63TK-1FjR-40" style="edgeStyle=none;curved=0;rounded=1;orthogonalLoop=1;jettySize=auto;html=1;entryX=0.75;entryY=0;entryDx=0;entryDy=0;fontSize=12;startSize=8;endSize=8;fillColor=#d5e8d4;strokeColor=#82b366;strokeWidth=2;" edge="1" parent="1" target="sHTxUgN6t5W63TK-1FjR-24">
          <mxGeometry relative="1" as="geometry">
            <mxPoint x="480" y="180" as="sourcePoint" />
            <Array as="points">
              <mxPoint x="405" y="180" />
            </Array>
          </mxGeometry>
        </mxCell>
        <mxCell id="sHTxUgN6t5W63TK-1FjR-41" value="" style="sketch=0;outlineConnect=0;fontColor=#232F3E;gradientColor=none;fillColor=#8C4FFF;strokeColor=none;dashed=0;verticalLabelPosition=bottom;verticalAlign=top;align=center;html=1;fontSize=12;fontStyle=0;aspect=fixed;pointerEvents=1;shape=mxgraph.aws4.network_load_balancer;" vertex="1" parent="1">
          <mxGeometry x="480.5" y="160" width="39" height="39" as="geometry" />
        </mxCell>
        <mxCell id="sHTxUgN6t5W63TK-1FjR-45" style="edgeStyle=none;curved=0;rounded=1;orthogonalLoop=1;jettySize=auto;html=1;entryX=1;entryY=0.25;entryDx=0;entryDy=0;fontSize=12;startSize=8;endSize=8;dashed=1;dashPattern=8 8;startArrow=oval;startFill=1;fillColor=#f8cecc;strokeColor=#b85450;strokeWidth=2;" edge="1" parent="1" source="sHTxUgN6t5W63TK-1FjR-42" target="sHTxUgN6t5W63TK-1FjR-16">
          <mxGeometry relative="1" as="geometry">
            <Array as="points">
              <mxPoint x="369" y="223" />
            </Array>
          </mxGeometry>
        </mxCell>
        <mxCell id="sHTxUgN6t5W63TK-1FjR-42" value="" style="sketch=0;points=[[0,0,0],[0.25,0,0],[0.5,0,0],[0.75,0,0],[1,0,0],[0,1,0],[0.25,1,0],[0.5,1,0],[0.75,1,0],[1,1,0],[0,0.25,0],[0,0.5,0],[0,0.75,0],[1,0.25,0],[1,0.5,0],[1,0.75,0]];outlineConnect=0;fontColor=#232F3E;fillColor=#ED7100;strokeColor=#ffffff;dashed=0;verticalLabelPosition=bottom;verticalAlign=top;align=center;html=1;fontSize=12;fontStyle=0;aspect=fixed;shape=mxgraph.aws4.resourceIcon;resIcon=mxgraph.aws4.lightsail;" vertex="1" parent="1">
          <mxGeometry x="349" y="280" width="40" height="40" as="geometry" />
        </mxCell>
        <mxCell id="sHTxUgN6t5W63TK-1FjR-43" style="edgeStyle=none;curved=1;rounded=0;orthogonalLoop=1;jettySize=auto;html=1;exitX=0;exitY=0.25;exitDx=0;exitDy=0;entryX=1;entryY=0.5;entryDx=0;entryDy=0;entryPerimeter=0;fontSize=12;startSize=8;endSize=8;dashed=1;startArrow=classic;startFill=1;endArrow=oval;endFill=1;dashPattern=8 8;fillColor=#f8cecc;strokeColor=#b85450;strokeWidth=2;" edge="1" parent="1" source="sHTxUgN6t5W63TK-1FjR-6" target="sHTxUgN6t5W63TK-1FjR-42">
          <mxGeometry relative="1" as="geometry" />
        </mxCell>
        <mxCell id="sHTxUgN6t5W63TK-1FjR-48" style="edgeStyle=none;curved=1;rounded=0;orthogonalLoop=1;jettySize=auto;html=1;entryX=1;entryY=0.25;entryDx=0;entryDy=0;fontSize=12;startSize=8;endSize=8;strokeWidth=2;" edge="1" parent="1" source="sHTxUgN6t5W63TK-1FjR-46" target="sHTxUgN6t5W63TK-1FjR-24">
          <mxGeometry relative="1" as="geometry" />
        </mxCell>
        <mxCell id="sHTxUgN6t5W63TK-1FjR-46" value="" style="sketch=0;points=[[0,0,0],[0.25,0,0],[0.5,0,0],[0.75,0,0],[1,0,0],[0,1,0],[0.25,1,0],[0.5,1,0],[0.75,1,0],[1,1,0],[0,0.25,0],[0,0.5,0],[0,0.75,0],[1,0.25,0],[1,0.5,0],[1,0.75,0]];outlineConnect=0;fontColor=#232F3E;fillColor=#8C4FFF;strokeColor=#ffffff;dashed=0;verticalLabelPosition=bottom;verticalAlign=top;align=center;html=1;fontSize=12;fontStyle=0;aspect=fixed;shape=mxgraph.aws4.resourceIcon;resIcon=mxgraph.aws4.direct_connect;" vertex="1" parent="1">
          <mxGeometry x="519.5" y="367" width="44" height="44" as="geometry" />
        </mxCell>
        <mxCell id="sHTxUgN6t5W63TK-1FjR-47" style="edgeStyle=none;curved=0;rounded=1;orthogonalLoop=1;jettySize=auto;html=1;entryX=0.5;entryY=1;entryDx=0;entryDy=0;entryPerimeter=0;fontSize=12;startSize=8;endSize=8;strokeWidth=2;" edge="1" parent="1" target="sHTxUgN6t5W63TK-1FjR-46">
          <mxGeometry relative="1" as="geometry">
            <mxPoint x="680" y="490" as="sourcePoint" />
            <Array as="points">
              <mxPoint x="620" y="490" />
              <mxPoint x="542" y="490" />
            </Array>
          </mxGeometry>
        </mxCell>
        <mxCell id="sHTxUgN6t5W63TK-1FjR-49" value="原始线路 1" style="text;html=1;align=center;verticalAlign=middle;resizable=0;points=[];autosize=1;strokeColor=none;fillColor=none;fontSize=16;" vertex="1" parent="1">
          <mxGeometry x="550" y="450" width="100" height="30" as="geometry" />
        </mxCell>
        <mxCell id="sHTxUgN6t5W63TK-1FjR-50" value="原始线路 2" style="text;html=1;align=center;verticalAlign=middle;resizable=0;points=[];autosize=1;strokeColor=none;fillColor=none;fontSize=16;" vertex="1" parent="1">
          <mxGeometry x="463.5" y="510" width="100" height="30" as="geometry" />
        </mxCell>
        <mxCell id="sHTxUgN6t5W63TK-1FjR-51" value="存在风险线路 1" style="text;html=1;align=center;verticalAlign=middle;resizable=0;points=[];autosize=1;strokeColor=none;fillColor=none;fontSize=16;" vertex="1" parent="1">
          <mxGeometry x="535" y="150" width="130" height="30" as="geometry" />
        </mxCell>
        <mxCell id="sHTxUgN6t5W63TK-1FjR-52" value="存在风险线路 2" style="text;html=1;align=center;verticalAlign=middle;resizable=0;points=[];autosize=1;strokeColor=none;fillColor=none;fontSize=16;" vertex="1" parent="1">
          <mxGeometry x="476.5" y="271" width="130" height="30" as="geometry" />
        </mxCell>
      </root>
    </mxGraphModel>
  </diagram>
  <diagram id="lN9aUkJ4ujWL0DsOe13c" name="第 3 页">
    <mxGraphModel dx="1066" dy="733" grid="0" gridSize="10" guides="1" tooltips="1" connect="1" arrows="1" fold="1" page="0" pageScale="1" pageWidth="850" pageHeight="1100" math="0" shadow="0">
      <root>
        <mxCell id="0" />
        <mxCell id="1" parent="0" />
        <mxCell id="BHW6scP7Nb031aZkflbW-4" value="AWS Account" style="points=[[0,0],[0.25,0],[0.5,0],[0.75,0],[1,0],[1,0.25],[1,0.5],[1,0.75],[1,1],[0.75,1],[0.5,1],[0.25,1],[0,1],[0,0.75],[0,0.5],[0,0.25]];outlineConnect=0;gradientColor=none;html=1;whiteSpace=wrap;fontSize=12;fontStyle=0;container=1;pointerEvents=0;collapsible=0;recursiveResize=0;shape=mxgraph.aws4.group;grIcon=mxgraph.aws4.group_account;strokeColor=#CD2264;fillColor=none;verticalAlign=top;align=left;spacingLeft=30;fontColor=#CD2264;dashed=0;strokeWidth=2;" vertex="1" parent="1">
          <mxGeometry x="80" y="40" width="560" height="480" as="geometry" />
        </mxCell>
        <mxCell id="BHW6scP7Nb031aZkflbW-15" value="Amazon S3" style="sketch=0;outlineConnect=0;fontColor=#232F3E;gradientColor=none;strokeColor=#ffffff;fillColor=#232F3E;dashed=0;verticalLabelPosition=middle;verticalAlign=bottom;align=center;html=1;whiteSpace=wrap;fontSize=10;fontStyle=1;spacing=3;shape=mxgraph.aws4.productIcon;prIcon=mxgraph.aws4.s3;" vertex="1" parent="BHW6scP7Nb031aZkflbW-4">
          <mxGeometry x="280" y="360" width="40" height="70" as="geometry" />
        </mxCell>
        <mxCell id="BHW6scP7Nb031aZkflbW-16" value="VPC" style="points=[[0,0],[0.25,0],[0.5,0],[0.75,0],[1,0],[1,0.25],[1,0.5],[1,0.75],[1,1],[0.75,1],[0.5,1],[0.25,1],[0,1],[0,0.75],[0,0.5],[0,0.25]];outlineConnect=0;gradientColor=none;html=1;whiteSpace=wrap;fontSize=12;fontStyle=0;container=1;pointerEvents=0;collapsible=0;recursiveResize=0;shape=mxgraph.aws4.group;grIcon=mxgraph.aws4.group_vpc2;strokeColor=#8C4FFF;fillColor=none;verticalAlign=top;align=left;spacingLeft=30;fontColor=#AAB7B8;dashed=0;strokeWidth=2;" vertex="1" parent="BHW6scP7Nb031aZkflbW-4">
          <mxGeometry x="40" y="40" width="480" height="280" as="geometry" />
        </mxCell>
        <mxCell id="BHW6scP7Nb031aZkflbW-17" value="Public subnet" style="points=[[0,0],[0.25,0],[0.5,0],[0.75,0],[1,0],[1,0.25],[1,0.5],[1,0.75],[1,1],[0.75,1],[0.5,1],[0.25,1],[0,1],[0,0.75],[0,0.5],[0,0.25]];outlineConnect=0;gradientColor=none;html=1;whiteSpace=wrap;fontSize=12;fontStyle=0;container=1;pointerEvents=0;collapsible=0;recursiveResize=0;shape=mxgraph.aws4.group;grIcon=mxgraph.aws4.group_security_group;grStroke=0;strokeColor=#7AA116;fillColor=#F2F6E8;verticalAlign=top;align=left;spacingLeft=30;fontColor=#248814;dashed=0;" vertex="1" parent="BHW6scP7Nb031aZkflbW-16">
          <mxGeometry x="40" y="40" width="160" height="200" as="geometry" />
        </mxCell>
        <mxCell id="BHW6scP7Nb031aZkflbW-18" value="" style="shape=image;verticalLabelPosition=bottom;labelBackgroundColor=default;verticalAlign=top;aspect=fixed;imageAspect=0;image=data:image/png,iVBORw0KGgoAAAANSUhEUgAAARoAAABsCAYAAAC1v33SAAAEDmlDQ1BrQ0dDb2xvclNwYWNlR2VuZXJpY1JHQgAAOI2NVV1oHFUUPpu5syskzoPUpqaSDv41lLRsUtGE2uj+ZbNt3CyTbLRBkMns3Z1pJjPj/KRpKT4UQRDBqOCT4P9bwSchaqvtiy2itFCiBIMo+ND6R6HSFwnruTOzu5O4a73L3PnmnO9+595z7t4LkLgsW5beJQIsGq4t5dPis8fmxMQ6dMF90A190C0rjpUqlSYBG+PCv9rt7yDG3tf2t/f/Z+uuUEcBiN2F2Kw4yiLiZQD+FcWyXYAEQfvICddi+AnEO2ycIOISw7UAVxieD/Cyz5mRMohfRSwoqoz+xNuIB+cj9loEB3Pw2448NaitKSLLRck2q5pOI9O9g/t/tkXda8Tbg0+PszB9FN8DuPaXKnKW4YcQn1Xk3HSIry5ps8UQ/2W5aQnxIwBdu7yFcgrxPsRjVXu8HOh0qao30cArp9SZZxDfg3h1wTzKxu5E/LUxX5wKdX5SnAzmDx4A4OIqLbB69yMesE1pKojLjVdoNsfyiPi45hZmAn3uLWdpOtfQOaVmikEs7ovj8hFWpz7EV6mel0L9Xy23FMYlPYZenAx0yDB1/PX6dledmQjikjkXCxqMJS9WtfFCyH9XtSekEF+2dH+P4tzITduTygGfv58a5VCTH5PtXD7EFZiNyUDBhHnsFTBgE0SQIA9pfFtgo6cKGuhooeilaKH41eDs38Ip+f4At1Rq/sjr6NEwQqb/I/DQqsLvaFUjvAx+eWirddAJZnAj1DFJL0mSg/gcIpPkMBkhoyCSJ8lTZIxk0TpKDjXHliJzZPO50dR5ASNSnzeLvIvod0HG/mdkmOC0z8VKnzcQ2M/Yz2vKldduXjp9bleLu0ZWn7vWc+l0JGcaai10yNrUnXLP/8Jf59ewX+c3Wgz+B34Df+vbVrc16zTMVgp9um9bxEfzPU5kPqUtVWxhs6OiWTVW+gIfywB9uXi7CGcGW/zk98k/kmvJ95IfJn/j3uQ+4c5zn3Kfcd+AyF3gLnJfcl9xH3OfR2rUee80a+6vo7EK5mmXUdyfQlrYLTwoZIU9wsPCZEtP6BWGhAlhL3p2N6sTjRdduwbHsG9kq32sgBepc+xurLPW4T9URpYGJ3ym4+8zA05u44QjST8ZIoVtu3qE7fWmdn5LPdqvgcZz8Ww8BWJ8X3w0PhQ/wnCDGd+LvlHs8dRy6bLLDuKMaZ20tZrqisPJ5ONiCq8yKhYM5cCgKOu66Lsc0aYOtZdo5QCwezI4wm9J/v0X23mlZXOfBjj8Jzv3WrY5D+CsA9D7aMs2gGfjve8ArD6mePZSeCfEYt8CONWDw8FXTxrPqx/r9Vt4biXeANh8vV7/+/16ffMD1N8AuKD/A/8leAvFY9bLAAAAbGVYSWZNTQAqAAAACAAEARoABQAAAAEAAAA+ARsABQAAAAEAAABGASgAAwAAAAEAAgAAh2kABAAAAAEAAABOAAAAAAAAAJAAAAABAAAAkAAAAAEAAqACAAQAAAABAAABGqADAAQAAAABAAAAbAAAAAC/I/yCAAAACXBIWXMAABYlAAAWJQFJUiTwAAAxQ0lEQVR4Ae19CbgVxZXweey7wGPfH6uIIKuAKC6ogEEEFRNNYtAYHbNowmS+xCRmxvyO6JiYdUZNYnTUGBcYJbgjCAjIvssmIKusgsr22P9zum917dXL7Xvfe3Dr+97rqrPXqapzq6urq4tKTx4/DZZUVFRkwTCwlRVAQVXKyDrFWJ1XhZloEcRkmFjtcn1ZVJcig1iTLIIxeUVFlTySotMMYuOQ4cRHHFxnOD/T5UkSbPWzdn6Jj5gFXk+W94/zM7TGZ+VlUriMShm/EIZDM3RMAWOTrqewHX2fSmCxgPyaTBGPed4XnMp8LoVElc1liUoUJhEl5h1k6vhxkGYkhlA40Kou0URb3iHOwGKhVsA2Ozwf28LJ6dOngf7sycaJHIQS0KdQDv2FdLGMKoGRKUcQ8duSXS6XdZpnbWI0+OlMgEnCa7dJU+MBmC4VG2a2jU+Ww61h8ox8DCkzO0tcspMsg8QAHBa0I9jg6guaFYq8ePZq0iID3GMnspgzgtD3OTYETTiU9ggq6HaYjSvDrqDLJtjgj7wjSAUVFTJ6Z9QhArmWZYOYB6ho/IxPb4xo/J4his814xIDuA2hwSKxjriMuaps+nLDJYZQhKDjei6f9LznkFasiC3g0EC1D1bygMMLCpoFG1m5qdoGmQiK9WvmifXleHUwiDRpJhizjw1+HjRsHDKc+JgMGRO/FGY2s9EtmVvjlOdEujV42Gz5UQi3NIK+siRJoa5laX7WuiPW39yeyJxZUtHssAcbIg3RKqApWLCAoymRAAITgyPIFmzMFSJGX07cYMNU+gPZLp3Rma48QEXjD4KGVvVo/J4NGq/JMprpqSsWZjoONdtghnIuORePWuZNv2TrS6zPpK/x7JPobPHksxuHI2kACIOgvAcb0UE0KE+HLWQqVScekhE32ChivKLvNtEimSpu0BCaQRZEJSfSJ8/m9imUN5J+tmYXgVivYV4g7h/mvJhQLpTYey0zD9sw/uyGGj6k8QV0RQo25BYeNJiT3FcWbNxUMjYIGoKfiEIpykxqyUgc3uSqmKhlSbJRd1RJPp0kLx6rTq3Yk6psXZsVophhoAuhCEEbBFpB8UTFo1aVor9JAPtT0bzszW4MurxbEetCq4GBi5RGTbRgIzJn8g4VuehMfgBIJpkHqGj8tmDjWsEIeAyuMoHIfXF5XPpNOsywaD4w86YPrei3T2U6c3KMQdZSSmsTh5sr2eyGqTNcBZVeY1uDFvGabcMbGoNgH6RUMEPny4mzXiPKoYGZ9BaKGypK5NAoObMXLJxG4oi6jbyyntBbIJk8XimSftb2EYjjaY9OXYaqoxtZtpSVzDMSt+dcsxtzddzyPB6RJOVg47IpabAxy3RD/QDlplGxwWxD9I9HZA8WAY8qzFLWRFvoooAlq0IERwlSkrwoBuSEJqQiITrLdLYRYlu+0EE76gGHnOt2sGl2o8thVQmXJ6oLDGPs0tVsl23665ZFtw746N4sUtIqFpLMaohftkUuifLD8rHMNRLLuq3Bycir1yTM3gKee8Dq0oAkhCIEHYgpRxm5t6FheqBw18oLNgYSkmNOBmKRMIMOX7MxyEFQvGDDZdjtFY2TA4UfbGR8WCkpjyeXm5tRozVfmPpyhk/bfs1Bcn0VtKrd1ndkIYVSEg+ovg5kyANPaaGAys8Q1ja7UUgzRbc8NrPJe7AJMctcF6sLzeQIlTnkkpXJgHCZq81QXMQo24l2Iim4y3txpBqF8BqqJYOQX5InY71SfgJEthUxGH4mgULc42xDeXYTIgmdZgs2ctBi3g2Rl0GnHWyYdtPVq2+IWcQnOs2foYgQk2QZps9qwvmDwKHZF84raxdLMm+gQyRx5mV+J6kFqQYpC1n5B2vtUv5NzqeFldw/Zb4pPFCQN90ejXcr5ZbFVCX6xbKINg8NTszrGr0Z4g9Q9KIyC4iuTabklstwKml2uYiRPgStKyiXkOxqkaivRfBD/H6VXT0imJRXEn/cUZ1C6iU7yk3sYQ0ksgxWTwMhQ9GVoa1rPiKRyJjFeg3TKYuTSmrAivu4m4TJC9CqREmdVwgCh2ZfOK8uLSZE0ynzqzMTySInr0QpC2UlJ79PlKsAwUzwrxEMkRmspawlZS3AalpOEHIrk/GOClCg4MHCQcjEGEg4v1gfA6GIZvm4wQbF2jqgXHGmwL+abZRpqCTKCIKATmaF5GNWoynXXC3WQq6TxmsEyPxGkhSAudKSK7kpVDm2iKj9NrbggEHrPAEmLFPJyEpAI8IXxyvkIMqIsK3b6IY5ZImonAYbrsi1CVC33YfIS6I2Khl+SjriKbzbBwGNm5oRaOYN6GW11pI6M5EINZ0SViuYLdLItMVknSIuxGGoA8W02H6cfHwEAUxQ4Rp4wOsL5Dr2F2Ao4/CpHGwchCTGIJz4uQym1SFHRCUINkxD+JUrkm9tzJz6YNIhZk4fqlPrEBc/w3GrGcRx1YiT6XRo0FGaTp2kwkNC6qj397AahwgMY8833mGu1sM0Wg3ArZeDhYMQWTysgUR3voGIqRRQmuGMxnK1/Uq55Oi2WYQLYHmGIiAc2bg8wSxF8Icv3lUbhwEKyilF00nMPodzNqTokItOjT4p6g2jsrWxrKv8lIyujGNe1gLiKMuO1th2ZL9UBw0gK+UDUuKSiZhMAwnnZywGIgXl7lQGfgTZeHQncP4ot1Aqf9xbKJU/fEgxZ8hXbrUMDwKTCLYRI03ygCEq8PN63XSa3EAcFYyg0NZXfNbsZEdQf8aR4LtO9BjUXC/NnRqA8/Fg4SBCcg9rIOH8TKaBSEXZDPfoDPwIcncgpoCuBn4RnXI+vVlNOoaVXYBIx/6ClPLlgaA/+QFHjzjacNMAvEI8WDiIkNzDGkg4P5cZmnMGm1DugCBwRADhmUSzmigLPFxF6G2BQOrMFiWW5PKAU6WEdM6GDG3OmJ18jChH13RqniPjKphY2xhWfFxknN1o/UMDcG9wRQ4iJPewbhJGxYWLOYFXqYRAJRAxKILyMqvh31lhmkOv8qzGXqtQQQYC4+2TgY6BnAPf4Nakt3tMXyR+o14ugXKR2jaCHFnqmVvKlyuMvdk0SdAM0gC8MbIJNpyXyXMoyqDcncvAbwCRNqMzMmaUx1lNEDws9WEetF6T8lkF5h7haiNdewWsoF6JMwJibbcKE2wyzWCtiKWZ3MFJZOKdNTpPhj/BrEbUnDTPLU4qweeL61ObtrTk2OQX4NwD+g81x+UrZ7LB2QdM6zZaJ9YAvDomhRzLc54IRU5UXrZmS0HAXhlFOKlGkClw2GX4PNxqc07n1yFmTh+a+PZJqqJZZzADshog8zlvn6wyyK9xn7tl6p6Qz2FKVihT/wgVKLVDKPVZQyD3LGO1ad1GXiTWfKkBuCCf10GQIfUonGQOZAbl7hgOfm6uJcd53Tp0djlw6HgVEqFBVJZyVI5gPXelwe5s+Q0icwZyViRnWnMhOB81idCyVLWyCTZqgMssITt9HbFCvgz0sClwmGVkmiNRq5gl2ioS54GVbZYS2czIhIq1SfkUMbkomto0TE+8FgqTVsCrY9c/JiJip1GZNTYNwB2edGaj6uQSlVxGN3Uye6dxGKiIcxXDOrKqP4xe1SW/bKlKU6lzXC5ntzPxa2tpcws4vvwCRxQP8F5Mjnc630eqA19jiSjHZZwmUyJ2YDMo98BW+LFooueOEZUrvCLKlc/XorBknrkGthmQy/wkuOTrNOHazDUL5ytQlJ0HqmiqqbPKSzICiY+kYFMkvJZtZDEAOR9Hbtj9EazevgDW7FwCB0sPQGnpIThQ+iUO/pOe3iKMfjWq1YKaVWtB1Wo1oUbVmlC9ag2oheVqmCdcjcq1sEz52h6sJl5rI746XmtUrYPwOlAL81UqVRXqImcp2FQS6iRjlRKaH0ZPg0FcEj2F90OVDAGH5JQePwxHjx+C0hNH8Er5w1B68iiUHsP8sVKE+7BjJzF/HGk8ulLvWr92YxjSdTS0Ke6iGOn/blibUqNmANVyBo96NfNLUN78UYXKdNnyy9IKJfRALlzKxzvKLz113NwXzdBMo/hIMdgQwshiAB4/UQpTVr4Ec9dPg70HdmRk5v5SuXJlDDwYsKrUxMCDAatKDaiKQatG5WpQrTLmq1WHqpWqY7CiK5YrV0Wa6lClMpaJ1rsiDOnPbd4H1u5YjAFyqW84BgwxHT91zAsKxygoYLDgweEoHPOCxVEPdvzEMZEtcf5fr/k1dGneS2kE8+6fItNnfSXzxRDpizTykLUSHzPf56+k6JGkGvl8fvPZJUy2fz3l4CcK+UfDQqyAJfsy6mQ5GWBwUQQwuAVM6Ehjhsnxrg5hhDegVR2SOEfBIMpAHUKloJkt+oyGiXaGODPSCFWAH254G6Ysfwl2fr6dacrb9eTJk3Do5AHUdwA+z0LrvcPGez8BFLHfXvpiFpLSY5244En42cgnIv000e2TNXAYTKImzG9SOk0C5fKMM7k8WU4CQxQW8VdeQZ3RRXugoWo728d/EsUiFvOSkSUDnLT4KXhn2UuMtAJfqULlK23a8zHecu6HujUaCIbRWr95ViMQ5SxL6zTqrCaKMn9wR6FMl0a6vUtXdF6lladgxmypQo1KyTpFNEYO5rfowea7T1/NmM6cazmLN5v3roXzWw1Iwb/ZDrls+VOoQhQRzr6dFwFRlOSNJmt3OCylHuElCjgs6DBYcHUOKH2PDfGJLP81+XuBqDMnI9awfNTqQGnmhjAHpqX+tCpLG6Os45SPVilYQR6oRJEmiDaYTzvYvDjvD0DT+kLKvQc+P7TfqMQ0prXAYSISpFnRVoTAnMmK/UzHqpAYglXWsi5XYNNz4Tq6fQrWaKgTsFV3CjbGWylyoLKqzA3Tb6NWbpsHMz96nZNYcvTYuV+ny6FZvZZQu1pdqFOrIT7ZqQ4bd6+CyYufs3CVB3D56lGlJw4ZnCK2rAGdY1BZrtPI/djZeXPshYojPldewkDDBou/oza7YINxCIMUWyB+b+UroR6+useNMKDDUGhWv22Gj0ey/Uf2hvIXCLgHquGj+vSSHqDiPa3S+dOzLXeS8m11rgZ27jyUTHIwo2GPmERHy78IggKrd3wEBZs569+GtZ8uF5j07I+v+S20b9otQPAg5QebpvVaB7hCJtwD1XEvUBAMlDZSip6wgDZcdG4oTEZJmkIIQtCSqEIhsgdy4VYh0JAdvoo0gs3SzXOcFfuf29/18XwCI9D7drSoX+I9Hk26nV0QeFZkq+HtZi4TtYox5aBn7tixA5595hn49NNP4bPPPoNWrVpBh04d4K477zKakEug9Qc3l0rPMNlKoKHaZR9s9hzYDqu2LrS6amSfsRyndFI+qwHvdYN6tRvB5wd3c/pCzuqBariL2ZzEnw4zhQdV2sJBGQsVd51m6dKlcPddd8H+/Xxxe+FCvz8tXbwUHn/icU9/xFq5bc1Rnd1Kc48Vx1HutYVrMAQaYsou2ND7S+xdJdWENo07wvALbpHXlJXG5k46Dc3rtywEGtWJlnJ1fLVCSopfJVykgj6U6XZr2/btMOeDWbBm7To4eOAAHDh4EA7h3/Hjx6FBw4bQqLgYGhbjtWExNG7cGHr17gXNmzf3NOoSdUN+/7vfSUFGpJg6dSpMee89uOrKK0VwxHzWDomop+KTpe2pKpmYYvCMr0rsGNYppGLV9s8+McjzQe2anOtlFBYW2xS+ImjeoC2s3rZEgReKJg+wGY1t7UXzOQqx0aryZ82aDW+/9RYsW74CPl67VkWHls8991y4fMjlMPLakVDSoYOTfl2I/M2fbHTyi0hrnxWJlLzY5xWUoWjyqoHsLAf5MxryFSVtvcR3YiTHC/7etG+1L8/wv12jLgFUYPFhAoDNalrUaxPQl5cMmVkeU3E9f9aQpm0vv/gyTH59MiyYvyArsWvWrAH6e/y/H4c2bdrAFUOGwE9/dp/xB+bw4cNOXYePlHK80Gc4sJArbx6Qb52MjeYDWbBx/kIY+eUqN6jZSAJoLAKAgk3zhu0l+kLB7IEqVapC07otzUgPylrQQSKgdu3cCffccw8sw/WStNOePXvgutGjrGJLSkpg1apVVnz7kBkRY1yE6zpTpkzxJu0MRtf7KMAVUqgHhKEYShtGIAcaojZK94Gsq4YGmzCtCt6oMkPTon4h0CjuMhab4GZHMQW3RIpzlaLI4ueRYMniJXDH7bfDoUOmDYA6S1zIpZddBl27drWy/fCHP4Q777zTiKc1nxFf+YoRpwKfe+4573ZPhHfv3l0sFvJ58kAlChpaot6oJR9IwYaSkc9HJfovqRQKdGZM/TqNE8nMhmnoBV+Ff7nqP+CG/t+BvrhrmQ7gEhPzgwgry3xTXDRPmigosbR+/Xq4+atfzVmQIT3X3zCaqTNeB2Mg+tvTT0P/AQOgGBeWq1WrBq1bt4abb74ZZs+ZLfG42oHWlAqpfHjAm9EYZyg0rgwxiMymxqWuaeQjAkc6Ytwm7zPYVDav3wqfPO1xSE0XRUFmVJ87UCh3wFVdb4RZ696E+Rveg2dn/QauueDrUFy3WbqKs5DWLIW1rL1798LokdfFtqJOnTpeQKhRowbs3r3b+sSIBPfp0wcuu/Sy4HUXT5mh4S8aNAjoj5L/OgxvCw8Y8u/ViRNDKAS0QT/r44wqSV9nvGV1ZeucZaVf1BvcOrEZivSOk9YAHMAawtQA1avUEnVI+U2710DP1pcErylISLHAVeEj7vw9eTqvVe9MkCFjuBFtijvBLQPvhSHdRsOT0/4fTFzwF6iJx4iWl9QSNzeGJ9ZqOuWJEydg3A9/5D2i1rE6ZOiwoXAlPmK+5NLBUL++cAYOxgOStWXzZti2dSu88+67MHPGDKB1GUrX33i9LiwE4vcxBxFvpoDojbKezRhsCoyrQJm0qhEEGlZ3LXBomjjA1m0b4Dm2trR59zobyoNz6VjMFCjQ5Ctd3Nly/5+x5Qieabxj/2bPnAvaDYC125fB/kNl/05W60YdNRfFWad55OFHYP68eZoMFUC3MN/97ndhFN7+2E7pq1KlCtCCLf3RbRDtr3nrjTdg2vvTYMyNY1SREctSz3Dy0ELyrJkznTQFZH49oAUao3qtjTnACza4ziPOhNSFSVHmlv0bgw/SsZcvRTzluXQfU1J8nkqSk/K5LXtCr3aDFdmyNVNWveLhe7W7CG67+Kfw5dEvYObqyfDhhndh7xc7FN78FGtVr4tvvid/L2zNmrUw8RW/Xi6LKcj85am/QLt27YSbSheHj6tatSqMHDXS+wunBnh4/HiNjFqBpYGDBnq3X6ysXv85aZIKksrjH9LliwT33RftqdSXX34JH879EOZ9OBcWLVoEn3/+OXzxxRdw7NgxnOXV9/7IV+eddx7QPiKaAWabJmHdFi5YCPv27fP+SCfTS7eutKZFf7RoTn+jRo2CCy64IFu1WfMbA402qyE18niTAGqwKWlyvtWwI0cPwoZdH0HHZt2lN72tDKi3RcMS3LjXBmcSW6xkaSAG2WYzGeG7vtwMiz+Z5ZUuPXekd61X/Ry4puc3YEj3MTB7zT9h9sfvwqf7NmU48nNph7uts0n/iwuvYXtX2rdvD2++/WY2aiLzUld7Gm2yJQo0pkTB8ne4q5jdpploVqxYAfRnS1GeSh3FQPL444/DS//4h/celkkWrXfRHy2uv4c7mSldfvnlcDs+zRuAi9xxEr2S8fJLL8M777wDB3Anti0dxN3Z9LcZb1tZeumll2D06NGe3g4RtwUw3jSvFCOMiYKNlqgHWBILNoRu16gz0L4OW1rwyVQbygrvrc00rKSJEF2a9YC+JZdZeXd/uQ3eWPK8h+/QvCt0bdFHoqXzc67oNgZ+MerPcPNFP4C2TTpL+FwW2jbyd1sn0bFjx0547dXXnKz01OdP//0njUZ8WqUh8whYuXw53IJPpH7+8587g0waJk2fMR1GjRwJ//OnP1mDjE3P+++/D9/85jfhgQcesJFI8Mmvvw7X4eL8TWNuggkTJjiDjMQoFOi29eWXX4YxY8bAQw89JGCSZh1BwCHSGmiIxxhsJGFmpXSQVYljoC3YMA3oxUuaJtHKuClJkrHQs43/BMJEmwZs0LnDrba8tugp+PcJt8OCjTM8VSN63GpVSY/BB+Ns56cj/gS3Dv5X6NzMPruzComJ6NA0jg65yVcucx/lQaaMwcfd7TtkN2sKrZLQ4OYeYZfwwH88AIvx1iXXiYLMnXd8BzZs2JCVqueff94b+GFCrh0xwnu0H0YXBU8zIZolphNsomiUaeReJ+PMJaFD+AQcIM5qWjS0d8zS46Uw5+O3A/m2YBMQYKZlww5gWvAUaZLmO+JA7VcyxLs7VGVs2L1S+3LDtFWvSmRmJxbBwI5D4UfDH4PvXP5zOK91b4knzUKHxt2s4oJZB28mj5YVV65caeUlBC3s3njjjU4aCckES8CKX6AnaBRk0kp0O/TUU0+Firv2uvjbDVxCKdhMnz7dRaLhYjWphdg8RgRVxlmNRRixsWDTJ+RWhz678tYKuhVxCBPsoGyP1hcqkHSKF597jVXQiq1zNdzHO5fjx+Oib82nW7J7r3oEhuH+nLRTq+IO3lc4k8pdt26tk7XfhRcad/FGbzVZPDtbKLTjyWxlWjp27Cj8+Mc/DrWhRYsW3jrMTTfdBLTWU7Om8ja9IuHhhx+GeSFP+m7FWy16N8yVGjVq5Omjxd8oKUqAc8uJ3/pV+EC3T1jDF4dJsczfsUl36Nl+ECzdKO/kFCsweeGzUFLcFc7F9Q7T5iJJKhboUyJvLHlBFJF1vkPTrtC/w5WB+aodtHFP/RYVzcgee+vfoCc+eRrW42tQ0si+nV40cDTK2nd4N8z/+H0RnFW+a6ueWfFv3rLVyR/1vSKnkBwj+/btC33wj6VnHAvJFAB+cO8PGKl8pV2ohvSH3/0eli5ZYsBw0D333gPf//73OQBzW7Zsgd8j7+TJkyW4WKBBf2H//iJIy9869lZ48FcPBvCBAwfCiJEjoEePHtChfQf8kioO40yip19///vf4XVc37Gl5bimle9UxZuBeFqlYZ3ADs7PZjUDOlztDDSk5A/v3Af3DB2PwSb81oIWPdvifpHNe9cnsM/MMqiLfTZDHCeF7flUpl3D1fCTuNNWTYKlm+Z4fwO7XAWXdLnWHHDQLWKgvgjPR04z0HRr3o/MSpz24E5eV+rdM7tAxmXznsZh6eToJUkvRmR+61yBhjTSzmRjkn8rPZIjR47Am2+6n7bNwD07zZvru8RpJvKb3/wGaMZhe4pGC8Tv4oufV191ldEkAt76zW/BlHemwOjrR8P111+v0wl2085r+tuJL8Wyw8JUBnrCSLduPVNrW1WDXvZCIe8CPFiopOJgCXB2co+kR+uBcGGnK3BgTQtYTBkKNvRO0eDOuPhV1THdRH0dm/dILdCUNOniraN4NmXqQhcxTVj4uFfs1KIbjBv22wB1Cdr61soX4P2Vk+DDtVO8v/uvfxLy+RJo/VrF+PSLAo3lpziwVs34LX4QX5qkx6Gu1KZtWwHNewoBZ06fiUdr3ingo2dvu+02+EkFeIv6Hzg7oONEbYnq4R/qJYx2hXjs2LHw2muvWV/NWL5smTPQkLjnnn9Okeou0iN0W6AhTlrQzi7QhAx+xTz6ZqqXqAv5SR1qDG55CiWR84LXJfGJ0ui+34bG57TgQiy5ifP+Ag+8+h2YsPBJ2PLZxwEVl+iDOjVP6xcWwDabYYvTXx7ZB9NXvOYpHtFrbGATZerWbAA39fsezsYegqYNWnm4p6arG8FU6wG/cbVGkpNNoVOL7N5E3hpy20S2NWnSJBsTKzzvopBbpquHDQutIwUi16a5sIO+QhUYCGhzpSu5gqeLLxJO7/aZb8dlEDzYRBLHiSTBvEDy6tZoBNf2+iandeT24dnAU5dPhPGTvgdPTP0lzFj9GmzZK7+y0APXaerWrO+QEg3VrnEXGNRpuJP4/xb92cOf16oXdG5KAY7XjTF2a9kP7rr8fq9IG/XWfOp+zLpo8weMNetr91bue3umwPbkaR8e+h2WmjbTbwnCeLLF617OVmJy/vXr5P4nSqpcuTL06R1+y088rgXd7Xg0atqpQQPh/TODcNfGPwN51iC+ikSti7M/bybiDSjzVNB4CxViRt/2Q2DHF1vhrRgLucs2zwX6o1S3VgNo06gTdGzaHdo36Yq7is+HJZkduiGqreiLOxuCTMYHdNmx/xOYt26qxz+y9226nAwtIVqGnZlDtJhmrnkdtu7d4Bey/F9ctwn0aXdpVlLOqVcvlJ8OwCqLYBNqWJ4IxF22qkqaqYyPuAmOgpIt0SsE4UnocEhMrz+s37AeNn2yyfujwEHnB9GaEq3B5OosoXA7zRQ80BA+U5dEwUbyAy94svAW6lq89ahVvQ5MnOvPEszmmKEHDu+Hj7bM9/6Ioma12mbCiNDWGLQGdfkKUpuDKYmZtORvnrQL2vbHBeiuXt70jwLv5s/Cb4eIjr51lVbqgXZVxd3IKBaT32JxZdetVzeU5VP87ElOAg11ETVluo29VVSG3JbDZnzbtm2zLvLGsYyCRliiNZUJE16BWXgoPN325HtGYraPj3MznkOraDOU6LxcCstJvFLBe/Iy5LwboWbVWvD8B79jHImuR44dSsTHmC7uzO6rZRsZfv2uFbBskz+buq73HQxsvdI5NZS64i0WPaqXk6+Dgswnu917VmQ+d6l328EeQRGK94ONm17HVoJ6dcNnNHt27dJZMxCqWTYpWXg0a/RkmZvTzGCCKvz7hM+9mMjTgh09etQq6lk8JfAdPPJiwYIFVpqKgPBmNKZgUwl/Vk6xKY6hJhqPgYaBxA51UadroFGdlvDuihdgVRl83aBVcXvvFQFmm3pdtm0OvLd8ggfu2+ESfJmznUIi98a9X2z3njgRET3Ot6UP171jQ8WGl+CXJGjNKDgGIrYEn6HeOeeEcu7arQYasTVxbxPuS7EFHNfLi6GKywEBfbiuLBPdltkei5elXZF0y8MEglsnLXAgYViwMSqUFEiFYD9J5+YXAP1NWzURpqyYCF/k8TyXCzsOMZpNwP+d/SjMxUfVLHVtGbITGas3dfWruNfmJNAO3QG08Q+T+rB5wSfTYD2+sZ5W6tl2YHJRQpNUqVIZOnXp4vx8yp69e6y6Bl82GC7BP0rq2TQz38f3ghI++rYqzDPCdoxJPsygmUySIFOrVi04B39A6JiK1atX58FUoUM5tAWBhmi0YBMwmoVZ6SVyvyD/DvqCrzjvBujX/gp8WXEaLNk8EzbsyL1j9LNtfPvoaZEYZMjCGasnwUUd2W1W4AwpM3f9u165f4crJLhYmLPuLbGYVb4y7gLtlbltiiPINvsZdNFFzkAzdcpUGDcufPu9Zgs1uCuVl4UYh430ITxXinKkhIvfhqOZ1JN4DEVYos8ED79mOFwyeDC0aNYcmjZtCtWrVw/YOnfuHOTLOiMFGjJGCh44Bv1Zjd1Mid5OFmBU+ro1GgAFHPpbjYN92eZZsHbnUti1P/1HfmRE0/qtja87NKrXIrCRZY6eOMKyxus7y/4O9DrCObWL8VG5OSAt2TIT1uApfGml7vi+V9N6/r4dWaYplMsUplJvfDz7jGPLPi1CPo3b5G/79rdN7Gc0rBh39LoSzRzoEHWeLNHTAmYzJhX9Lh5/6jpTh/TRRsFxPx4H1atlAosqhBtVLnJaoNGsCoKN/8uv4W0AidwvhA0FOuPFO+cFnfYpPl5etWMB7Ny/CfYc3AX7DuwB2mcT7Amx6Q2Bb8PNgPqCLeC6UXN8d2kgvlLwYSChS7NeQV7OFMGOzzfC1FWveeCebS+C2tXNC6uz17q3r8tyw0t9DS+rSq4OFyFQVIL+AwdAPXzM7XryQWehnI2BhgJJ7dq1rY+KaQ2K/Eb+c6aYDTQh5LRDCjJh36YSv1vutC0iMmYVfKkCkzHQqLMOviYscAoGavQMZyaXZ02MVrm2aFAC9EeJnqywtPfgDtj9JT7eO7If9uMLipMWPMNQka7/XPw0vibQBmch4o5X39C7rngAXlnwOOzGBd5O+FLo1d2/apz9jJ/8Xdiyh+9evgpnY2JiAXXFtg/ho63uDXwiX1i+RcN2eKtpWGOy+DlMHuHPwUfcgy8dDK9Ptr+EdzbPavr064evWkw3upKO7aT3nOjcmDQTvafkSs0M71XxMepzzkS7ylOiMWFMFDzEZCXMEKn0Iq+f96MFk+OkFwIL8bJXAihfjDMPmvVciAuvQ7vf4r3kSPCoadOedfCfk78Pry36K86Q1CcqeMhTv7vhe1c+CFf3+KonUjEFnsUFYzHIENHnuM/HlGavfcMETgzr095feBUFZDvDI1lDI2yjf+SRR+BR/KsIiU4EtCXXzM3jURo87KXSZ595xqYqFC72a5E47LappH2JSG7Mu770aWTICqg4zSCLjXsDSgGhLJ84XKjEKZFLBYksakGVMMi0wzdEGG0ApKMfHpp0N75b9TjswWM6o6bjp45rpCu2z/VmaSJi1acLcb1pngjKKl+7Rj0YhG9+p5IUJ1551ZXQsVOnUNF0pMEdd9wBGzd8EtAqogJ41IzWAbMViPy0KGpLO3AD4keOz+2qfGFHOCzDFyKTPB0iPfTS43jDQexd8EmgK636aJUL7X1OOKlNTsFZILV2FmVps46gEwQZkVwbbBJSKDClmnyBRt6cYT/ys1HdFrjLd7jIGTl/6OgBfLfq/7yA8+L8P+JrB5tCeYtribdcPvn5hsfgs9fab0VClRgIBnQaAg2k2z0DUeanwIQhmGv2c3vExV76jMkNeFTBmBvGwP2/uB8mT5oM+3EL/W7cb7N48SJ44/XJ8Mzf/gYL5rs3mJ127Mq22R8V3qJlSyspfaHgnu//QMPT7cqcD+dop971xiMXvhJya0T7XX55//1w4OABTa4KoDNqHn30Ubj22mvhlltukWbrjJa+muBKc/GrC7ZEC8n05YNykzKhwrhG4zKSgoS6T8RF7+FIWXAnJhVCWaMQ0Ml1y7fOgwOH90Uh12joydGMlZNh9qq3YUAX/Chap6/gu1X80aB4GBYdhLXv0E5YsH6GJ2cAnkVDX3Tg9QNYt2spfi1htqYnKYAOer+ks/vcnKSy2esLo68fhd91mht6UDnpofdp2NcEXnn5leSqc8TpmtGQyq14LOfwYcOB9pzQrZT6PtO3b5efsH3961/HAOr+4XjxxRdh/vz50Alnhm3atoFu3bpBaWkp0Axq185d3lMk+oqnuomRPXkSXdE5ZEYzd+5cGPutsTD29rEe2+FDh73zZ0hPeZvJsHqFBhqadYjfbKKZhmsjn0bPNEnxpQh/e097ActKz/iCqz+roYaRRCG+uE4LuPK80fDqwqcC6iSZE3hbNGv1WzB79dvQ3ws4w6F94/PlyRUKvn3wL+C6Xt/2Dlg3PcH6IOW1mQG4ybD5Oe2cVUr+KgIXO/6Rh71T4RYvWsyBFTDXFb+hFPZtJ1rgjppoVnPLN74BL+Ch4q60ceNGoL84ybRO07OX7Wknlzxnzhygv/KT1FEpW8buYmSoUtJucUiml4IMA3hXjV7C6gUrvVm8LgAhV+HiLR3LmUaiaT1t3nv09XHwtw/Gw8c79H0wxXWba4/JqR4b93wE89dPT8MMTwa9QHopHrKVr/T3f7wAY/HxaUVO9Cg+7W8Y/fKXv4QL8nQiHR09MSLkdi1K+zz44INRyHJPg+M4UqAxWVIpRhAI+CUeqRCQuDNuHvqIW9ppwfr34bG3/w3+MuMBWL19oSJesCeT/SDltZlhPW7G2zj34qBr7UUxmBcF0znQz/3kvp9gsBmrgst9WezMsb7coNbM4puX8PtIPxo3TqXOSfmx3/LTHJMooEVmOiQ9bL0niewkPHjCnsWrijTrrEO7sfAZ7fRcsNgxrPSKeWyqqYA9oT1bXwwXdryCK0gxt3jDLO984yem3Q8rtvJNfaIKeo1hzrr3RFBW+fPb9MfDz/3H7NEFiV6NxmXy5U/u+ym88NI/QhdCo2ngVHR+bv8B/TkgRzma1dyE36NKO919993w4EP/6X11IFvZ9OlaV5owcaJ33rCLRsXRE6tf//rXcMMN/t4u+mBdeUhFh08d95dpvf/Biq3VNmm9BqlOOfhU2kCooOaUsIoahZ5ksNgoiAlEH8eF3Uff/CFs+yzevXIgIGKmW+s+0KvNJXj71BMq42Lt9FX/1L6WEFGUkYxumcYN/y9oU8wXpY2EGSC91Mi3PrmX64MXIAUH+itmugaipadJ096bCvPmztMWM3UOGULv43TGNZMe558PtPbQt19f/FZUZY+oEsqmpFr7MH4b2/VaxJ//+mfrAeOeLKFetNnuj3/8YyS7L8RPy4y4dgR87Wtf8xb3VbvIVrGPTp8xHY9weNs7woGeJkVJbfEM5qFDh3qBoKSkxGdhHdoi4DE84PyJJ56wYH0wBZiL8L21cTjjEt93IqzpnSfaXfyzn/3MKdOEFFxrQNuxPNAQm0dnJyYS0dFU9gMN5cx8Kj1Reikgl7u4kT6g5cy0KKyBCY3A/Yd2wa/w/OGjGHQqahrd9w7cjHgzFClfYbDVJ5eBJtCJvqWnNIvwbBTaFUt/VKbzVOo3bAj0EmLD4gb4Rx+ab+T9GlfFICwnPnxZoCE8h2aojY3rU4l8smxBjsJPgYA+AkeHVW3/dBvQy6l0wiC9ZkB/Q4YoO66RX7MJlRn7J8I/2YTHuOLb0vv37/M+lUtPnGj21qhxI2jcuAmevdwYmjRqAnXq1FFN5r+cOiaA0BaCzaiDnpDRU7PjJ06gjxtA40aNvSdcwVGhSr2ZANPTLYaLc7WIz4iwY+VAQ+T8Z9GqX3V2omAj2BR/VnMaZzX+hF8Qw+1FIB1w/vA/v8dhFShH71zddcWvPIuj3gixWYrffKYhwh3AaMVILYd7Ay0DSQ7nehg4kM3o6cqQHozziAGDQzOMEk8Glhn6Ih/DsGsgx8DP+60ByQSwK5IEshgMr1yGAJSyIbJN6JAZjSReKhiEGUDEwsaLxJ6gYBEvSDJTVGJrHgFlkkqbbvIDgZaMwBN8igFJrWs1khj7Bj5G1qa4k/e9KFauKNd6eD7y3Zkg49scNdRUlBpyO9lXKzmkkIvnAWEQxWPMO7X38ChusFGDAR8K5oqr9IlqaRbtFEV7XOjjdBUpPfq1lxOZKz954i3iFJbAp055ZxKy4JtUW9Prkan4NBUh8etmVCsAKdjcO+zh+ILzzEEzmSdv56f75Vl9QV3BAzn1AP/p09ZmhNFqMEGdpXBBbj5JlECa5PZJkuUoULB54Ma/eguADrIyQ9ETLNtM5rTgozIzsKC44IEsPVB0+OQxvnqjrs9owUfWpi6M5XxRmFuaMcRfFNbAhBWA/kLYaThQuh+e+eARWLW1fGyxr1PjHLi4yzAYje9PqYktRNLiatpPnqQF24yfymIxmOrMFnZZfQM/CO0XwPK5GIxKeX/mFqh9nmNYzmg4Q0r9MgCq4y5ARMko+pQik1DWi8FyoCGrxErHDDTE7jeOubbGRhJIU336JMj1q0VTg9N4kPgJmIUfclu/ewVs3LkaX5DcS+i8p1F9voVfY7gOT+ara9QtDjw+WzSSBkAKILzJRAkBiZcpBBqlc8juCUr5CjQUBKJZFJgmZBROpcgI8xdoSKNuREigMTMx4+mqBg/eOLoylTaQE5Dy39VwWuJ2POYOZPpa2Kwm0JnJeGQCLW8QAciYGEgMxgwnOhfpRPv1IY8ECk0gJpMReQqBhnnH9wqbBTGoeA38xtpKQPI2MSAFOpblfZlB5HblUDEXItuAPhsCjd6H+U8izm5EB0bL6wI5n7quwzEsxxWG0zKe8n91+aQsrJefUJWFBQWdOfMAH0I5U5FEcIQxENPymORJjI7Ek7UdWQuIZObZRxShy1mdkg2vVWgBkQcPGFtOAoaMt1RmHoIOSXeoA/jGPUFEKFfZE6C1IQbH80PZ16hgQcEDLg8Y+3O2wcMXGjKSXFa5cCmL9cSlLNNlvoiL7mdjM4miyihfXu0qI3cU1GY8oA8oa0+RETqj06cO8uiDy6khNtLf/ewwLIZE2TdmxrKoJ629pFNDc50K0Nx54ExvtyhjJnSabxpU0QSbG47xmuSaOfIEzfQGs11nelfJk48Las5ID7AxrVWOBpMVqVHbADEGX0AaZGxCrXCNUwNYWQOE9t5XgCm7jDmwWexJUGeLpAK44IHUPBAjlsTswQ7yWAPHVFVFdrbBQREnaLRjBKJCtsJ5oNCu+W6y0EATEIS0jSl4BLwJahWdN8SwBLqzZjGYFL0+WWsvCKigHjB0mwpaEzJbro2z/+vBQ2ZO3QspiE8sIjFj6l4oCCwnHnAOjnJio9GMctiXI/kyIIpbAaQX38o2OiUEqAe7EAYHOt9PnhymBKhI9Ssy7FsPJJxtmaA3nm0Vr9D1TbXVIg2ajLvctH5ES8W4uMExxeaMUscU1RVEFTxQbj0QOpb1wVKGI1d0o2JG7haERaWYz+jV/UJ0ilEKa9xiaOPEFVigL3ggrx7g4yFyXw4IOW80k5E+1u1TXPmeFTKTXIpmpkglB61spYmSC/mCB9weOFN7WxA/3NUvW6x59lC2NqWiPUavOrN8UCG6XSpNXBDieyBSi7NOzontI4TRqg7mvBxjo+UUNBvKRbLbnwttBZkFD5ztHoh1VxM4K+44jUsfKEopI+iXb4tk+cbzrGQSqRQ3CMall5TFDrnZaZN1F0r59IDQXZOrTUVIcvWc0zcEe2M8i5J33xh6PNII9A4SB4r7oJzkoszscm9q8pbNvW0FDRXdA/8fZcbEi6lXfd4AAAAASUVORK5CYII=;" vertex="1" parent="BHW6scP7Nb031aZkflbW-17">
          <mxGeometry x="17.330000000000013" y="90" width="125.33" height="48" as="geometry" />
        </mxCell>
        <mxCell id="BHW6scP7Nb031aZkflbW-19" value="Amazon EC2" style="sketch=0;outlineConnect=0;fontColor=#232F3E;gradientColor=none;strokeColor=#ffffff;fillColor=#232F3E;dashed=0;verticalLabelPosition=middle;verticalAlign=bottom;align=center;html=1;whiteSpace=wrap;fontSize=10;fontStyle=1;spacing=3;shape=mxgraph.aws4.productIcon;prIcon=mxgraph.aws4.ec2;" vertex="1" parent="BHW6scP7Nb031aZkflbW-17">
          <mxGeometry x="60" y="130" width="40" height="70" as="geometry" />
        </mxCell>
        <mxCell id="BHW6scP7Nb031aZkflbW-20" value="AWS CodeBuild" style="sketch=0;outlineConnect=0;fontColor=#232F3E;gradientColor=none;strokeColor=#ffffff;fillColor=#232F3E;dashed=0;verticalLabelPosition=middle;verticalAlign=bottom;align=center;html=1;whiteSpace=wrap;fontSize=10;fontStyle=1;spacing=3;shape=mxgraph.aws4.productIcon;prIcon=mxgraph.aws4.codebuild;" vertex="1" parent="BHW6scP7Nb031aZkflbW-16">
          <mxGeometry x="400" y="40" width="40" height="70" as="geometry" />
        </mxCell>
        <mxCell id="BHW6scP7Nb031aZkflbW-21" value="AWS CodePipeline" style="sketch=0;outlineConnect=0;fontColor=#232F3E;gradientColor=none;strokeColor=#ffffff;fillColor=#232F3E;dashed=0;verticalLabelPosition=middle;verticalAlign=bottom;align=center;html=1;whiteSpace=wrap;fontSize=10;fontStyle=1;spacing=3;shape=mxgraph.aws4.productIcon;prIcon=mxgraph.aws4.codepipeline;" vertex="1" parent="BHW6scP7Nb031aZkflbW-16">
          <mxGeometry x="400" y="160" width="40" height="70" as="geometry" />
        </mxCell>
        <mxCell id="BHW6scP7Nb031aZkflbW-22" style="edgeStyle=orthogonalEdgeStyle;rounded=0;orthogonalLoop=1;jettySize=auto;html=1;strokeWidth=2;" edge="1" parent="BHW6scP7Nb031aZkflbW-16">
          <mxGeometry relative="1" as="geometry">
            <mxPoint x="80" y="210" as="targetPoint" />
            <mxPoint x="-60" y="210" as="sourcePoint" />
          </mxGeometry>
        </mxCell>
        <mxCell id="BHW6scP7Nb031aZkflbW-25" value="" style="rounded=0;whiteSpace=wrap;html=1;fillColor=none;dashed=1;dashPattern=8 8;" vertex="1" parent="BHW6scP7Nb031aZkflbW-16">
          <mxGeometry x="370" y="20" width="100" height="240" as="geometry" />
        </mxCell>
        <mxCell id="BHW6scP7Nb031aZkflbW-26" value="" style="endArrow=classic;html=1;rounded=0;" edge="1" parent="BHW6scP7Nb031aZkflbW-16">
          <mxGeometry width="50" height="50" relative="1" as="geometry">
            <mxPoint x="300" y="340" as="sourcePoint" />
            <mxPoint x="420" y="250" as="targetPoint" />
          </mxGeometry>
        </mxCell>
        <mxCell id="BHW6scP7Nb031aZkflbW-24" value="" style="endArrow=classic;html=1;rounded=0;" edge="1" parent="BHW6scP7Nb031aZkflbW-4">
          <mxGeometry width="50" height="50" relative="1" as="geometry">
            <mxPoint x="160" y="300" as="sourcePoint" />
            <mxPoint x="270" y="380" as="targetPoint" />
          </mxGeometry>
        </mxCell>
        <mxCell id="BHW6scP7Nb031aZkflbW-27" value="webhook to s3" style="text;html=1;align=center;verticalAlign=middle;resizable=0;points=[];autosize=1;strokeColor=none;fillColor=none;" vertex="1" parent="BHW6scP7Nb031aZkflbW-4">
          <mxGeometry x="120" y="340" width="100" height="30" as="geometry" />
        </mxCell>
        <mxCell id="BHW6scP7Nb031aZkflbW-23" value="Developer" style="sketch=0;outlineConnect=0;fontColor=#232F3E;gradientColor=none;strokeColor=#232F3E;fillColor=#ffffff;dashed=0;verticalLabelPosition=bottom;verticalAlign=top;align=center;html=1;fontSize=12;fontStyle=0;aspect=fixed;shape=mxgraph.aws4.resourceIcon;resIcon=mxgraph.aws4.user;" vertex="1" parent="1">
          <mxGeometry x="20" y="266" width="40" height="40" as="geometry" />
        </mxCell>
      </root>
    </mxGraphModel>
  </diagram>
</mxfile>
